# xmcd
#
# Track frame offsets:
#	187
#	18657
#	29744
#	41637
#	55029
#	66742
#	88529
#	143212
#	157629
#	173394
#	193122
#	203142
#	215387
#	232379
#	252714
#
# Disc length: 3636 seconds
#
# Revision: 1
# Processed by: cddbd v1.5.1PL0 Copyright (c) Steve Scherf et al.
# Submitted via: CDex 1.50Beta5
#
DISCID=dd0e320f
DTITLE=Perry Como - Live On Tour
DYEAR=1900
DGENRE=Pop
TTITLE0=Overture
TTITLE1=Where Or When
TTITLE2=Beautiful Noise
TTITLE3=You Needed Me
TTITLE4=Temptation
TTITLE5=Talk
TTITLE6=Bing Crosby Medley
TTITLE7=If I Could Almost Read Your Mind
TTITLE8=Perry Como Medley
TTITLE9=You'll Never Walk Alone〜You Are Never Far Away
TTITLE10=Oh MArie
TTITLE11=It Could Happen To You
TTITLE12=And I Love You So
TTITLE13=At's Impossible
TTITLE14=Send In The Clowns
EXTD=
EXTT0=
EXTT1=
EXTT2=
EXTT3=
EXTT4=
EXTT5=
EXTT6=
EXTT7=
EXTT8=
EXTT9=
EXTT10=
EXTT11=
EXTT12=
EXTT13=
EXTT14=
PLAYORDER=
